<svg width="64" height="64" viewBox="0 0 64 64" fill="none" xmlns="http://www.w3.org/2000/svg">
<path d="M36.0535 40.4107L41.9753 59.2657C42.6428 61.3906 41.2641 63.6116 39.0625 63.9558C37.0495 64.2704 35.1694 62.8707 34.8916 60.8524L32.4697 43.1612C32.0399 40.0246 28.0909 38.8922 26.064 41.3247L15.5118 53.9867C14.1401 55.631 11.6536 55.7446 10.1387 54.2295L9.80321 53.894C8.27778 52.3685 8.40534 49.8574 10.0793 48.4944L22.9048 38.0517C25.372 36.0439 24.259 32.0597 21.1085 31.6211L3.13885 29.117C1.12416 28.8357 -0.270218 26.9589 0.0443036 24.9476V24.9389C0.390278 22.7388 2.6094 21.3601 4.73417 22.0259L23.588 27.948C26.4187 28.8374 29.0677 26.1481 28.1363 23.3312L22.0119 4.80131C21.3112 2.68341 22.6637 0.43969 24.8618 0.0674843L24.9579 0.0517573C26.9796 -0.290742 28.8859 1.10372 29.1725 3.136L31.666 20.8865C32.1063 24.0267 36.071 25.1416 38.0857 22.6934L48.4143 10.1293C49.7807 8.46745 52.2811 8.34513 53.8013 9.86716L54.163 10.2289C55.6727 11.7387 55.5661 14.2165 53.9324 15.5918L41.6258 25.9419C39.2162 27.9672 40.338 31.8885 43.4553 32.3341L60.8728 34.8224C62.8997 35.1125 64.2906 37.0155 63.9481 39.0355L63.9307 39.1386C63.5585 41.3386 61.3149 42.6894 59.1971 41.9887L40.6683 35.8639C37.8516 34.9325 35.1624 37.5816 36.0518 40.4125L36.0535 40.4107Z" fill="#F9F9F9"/>
</svg>
